<svg width="340" height="74" viewBox="0 0 340 74" fill="none" xmlns="http://www.w3.org/2000/svg">
<g clip-path="url(#clip0_162:3)">
<path d="M108.896 11.4228H125.617V16.3893H114.303V20.9418H124.951V25.9083H114.303V30.8747H126.282V35.8412H108.896V11.4228Z" fill="white"/>
<path d="M131.523 11.4228H138.927L149.409 28.4743H149.493V11.4228H154.9V35.9239H147.829L137.097 18.4586H137.014V35.9239H131.607V11.4228H131.523Z" fill="white"/>
<path d="M168.876 11.4228H173.368L184.1 35.9239H177.944L175.781 30.7092H166.214L164.134 35.9239H158.145L168.876 11.4228ZM170.956 18.5414L167.961 26.1566H173.951L170.956 18.5414Z" fill="white"/>
<path d="M203.566 17.7964C203.067 17.1342 202.402 16.6376 201.57 16.3065C200.821 15.9754 199.906 15.8098 198.908 15.8098C197.909 15.8098 196.911 15.9754 196.079 16.3893C195.247 16.8031 194.415 17.2998 193.833 18.0447C193.168 18.7897 192.668 19.6174 192.336 20.528C192.003 21.5212 191.836 22.5145 191.836 23.6734C191.836 24.8322 192.003 25.9083 192.336 26.8188C192.668 27.8121 193.168 28.6398 193.833 29.302C194.499 30.047 195.164 30.5436 196.079 30.9575C196.911 31.3714 197.826 31.5369 198.824 31.5369C199.906 31.5369 200.904 31.2886 201.819 30.8747C202.651 30.3781 203.4 29.7986 203.982 28.9709L208.475 32.3646C207.393 33.8546 206.145 34.9306 204.481 35.5928C202.901 36.255 201.237 36.6689 199.573 36.6689C197.66 36.6689 195.83 36.3378 194.249 35.7584C192.585 35.179 191.254 34.2684 190.006 33.1924C188.842 32.0335 187.927 30.7092 187.261 29.1365C186.595 27.5637 186.263 25.7427 186.263 23.8389C186.263 21.8523 186.595 20.1141 187.261 18.5414C187.927 16.9687 188.842 15.5615 190.006 14.4855C191.171 13.3266 192.585 12.4989 194.249 11.9195C195.913 11.34 197.66 11.0089 199.573 11.0089C200.239 11.0089 200.987 11.0917 201.736 11.1745C202.485 11.34 203.234 11.5056 203.982 11.7539C204.731 12.0022 205.397 12.4161 206.062 12.83C206.728 13.3266 207.31 13.8233 207.892 14.5682L203.566 17.7964Z" fill="white"/>
<path d="M216.96 16.2237H209.889V11.4228H229.355V16.2237H222.284V36.0067H216.877V16.2237H216.96Z" fill="white"/>
<path d="M124.868 55.2103C124.369 54.5481 123.703 54.0515 122.872 53.7204C122.123 53.3893 121.208 53.2237 120.209 53.2237C119.211 53.2237 118.213 53.3893 117.381 53.8031C116.549 54.217 115.717 54.7136 115.135 55.4586C114.469 56.2036 113.97 57.0313 113.637 57.9418C113.305 58.9351 113.138 59.9284 113.138 61.0873C113.138 62.2461 113.305 63.3221 113.637 64.2327C113.97 65.2259 114.469 66.0537 115.135 66.7159C115.8 67.4608 116.466 67.9575 117.381 68.3714C118.213 68.7852 119.128 68.9508 120.126 68.9508C121.208 68.9508 122.206 68.7025 123.121 68.2886C123.953 67.7919 124.702 67.2125 125.284 66.3848L129.776 69.7785C128.695 71.2685 127.447 72.3445 125.783 73.0067C124.203 73.6689 122.539 74.0828 120.875 74.0828C118.962 74.0828 117.131 73.7517 115.551 73.1723C113.887 72.5928 112.556 71.6823 111.308 70.6063C110.143 69.4474 109.228 68.123 108.563 66.5503C107.897 64.9776 107.564 63.1566 107.564 61.2528C107.564 59.2662 107.897 57.528 108.563 55.9553C109.228 54.3826 110.143 52.9754 111.308 51.8993C112.473 50.7405 113.887 49.9128 115.551 49.3333C117.215 48.7539 118.962 48.4228 120.875 48.4228C121.54 48.4228 122.289 48.5056 123.038 48.5884C123.787 48.7539 124.535 48.9195 125.284 49.1678C126.033 49.4161 126.698 49.83 127.364 50.2439C128.029 50.7405 128.612 51.2371 129.194 51.9821L124.868 55.2103Z" fill="white"/>
<path d="M132.105 61.0873C132.105 59.1007 132.438 57.3624 133.104 55.7897C133.769 54.217 134.684 52.8099 135.849 51.7338C137.014 50.575 138.428 49.7472 140.092 49.1678C141.756 48.5884 143.503 48.2573 145.416 48.2573C147.329 48.2573 149.16 48.5884 150.74 49.1678C152.404 49.7472 153.735 50.6577 154.983 51.7338C156.148 52.8926 157.063 54.217 157.728 55.7897C158.394 57.3624 158.726 59.1835 158.726 61.0873C158.726 63.0738 158.394 64.8121 157.728 66.3848C157.063 67.9575 156.148 69.3647 154.983 70.4407C153.818 71.5996 152.404 72.4273 150.74 73.0067C149.076 73.5861 147.329 73.9172 145.416 73.9172C143.503 73.9172 141.672 73.5861 140.092 73.0067C138.428 72.4273 137.097 71.5168 135.849 70.4407C134.684 69.2819 133.769 67.9575 133.104 66.3848C132.438 64.8121 132.105 63.0738 132.105 61.0873ZM137.762 61.0873C137.762 62.2461 137.929 63.3222 138.262 64.2327C138.594 65.226 139.177 66.0537 139.842 66.7159C140.508 67.4609 141.34 67.9575 142.255 68.3714C143.17 68.7853 144.251 68.9508 145.416 68.9508C146.581 68.9508 147.662 68.7853 148.577 68.3714C149.492 67.9575 150.324 67.4609 150.99 66.7159C151.655 65.9709 152.154 65.1432 152.57 64.2327C152.903 63.2394 153.069 62.2461 153.069 61.0873C153.069 59.9284 152.903 58.9351 152.57 57.9419C152.238 56.9486 151.655 56.1208 150.99 55.4586C150.324 54.7137 149.492 54.217 148.577 53.8032C147.662 53.3893 146.581 53.2237 145.416 53.2237C144.251 53.2237 143.17 53.3893 142.255 53.8032C141.34 54.217 140.508 54.7137 139.842 55.4586C139.177 56.2036 138.678 57.0313 138.262 57.9419C137.929 58.9351 137.762 60.0112 137.762 61.0873Z" fill="white"/>
<path d="M163.303 48.8367H170.707L181.189 65.8882H181.272V48.8367H186.679V73.3378H179.608L168.877 55.8725H168.793V73.3378H163.386V48.8367H163.303Z" fill="white"/>
<path d="M204.731 54.8792C204.315 54.2998 203.733 53.8859 202.901 53.6376C202.152 53.3893 201.404 53.2237 200.738 53.2237C200.322 53.2237 199.906 53.3065 199.49 53.3893C199.074 53.472 198.658 53.6376 198.326 53.8031C197.993 53.9687 197.66 54.2998 197.41 54.5481C197.161 54.8792 197.078 55.2931 197.078 55.7069C197.078 56.4519 197.327 57.0313 197.91 57.4452C198.492 57.8591 199.157 58.1902 199.989 58.4385C200.821 58.6868 201.736 59.0179 202.735 59.2662C203.733 59.5145 204.648 59.9284 205.48 60.4251C206.312 60.9217 207.061 61.5839 207.56 62.4944C208.142 63.3222 208.392 64.481 208.392 65.8881C208.392 67.2125 208.142 68.4541 207.643 69.4474C207.144 70.4407 206.478 71.2685 205.563 72.0134C204.731 72.6756 203.65 73.1723 202.568 73.5034C201.404 73.8345 200.239 74 198.908 74C197.327 74 195.83 73.7517 194.416 73.255C193.085 72.7584 191.754 72.0134 190.589 70.9374L194.416 66.7159C194.998 67.4609 195.663 68.0403 196.495 68.4541C197.327 68.868 198.242 69.0336 199.157 69.0336C199.573 69.0336 200.073 68.9508 200.489 68.868C200.904 68.7852 201.32 68.6197 201.736 68.3714C202.069 68.123 202.402 67.8747 202.568 67.5436C202.818 67.2125 202.901 66.7987 202.901 66.3848C202.901 65.6398 202.651 65.0604 202.069 64.6465C201.487 64.2327 200.821 63.8188 199.906 63.5705C199.074 63.2394 198.159 62.9911 197.161 62.66C196.163 62.3289 195.248 61.915 194.416 61.4183C193.584 60.9217 192.835 60.2595 192.253 59.4318C191.67 58.604 191.421 57.528 191.421 56.1208C191.421 54.7964 191.67 53.6376 192.169 52.6443C192.669 51.651 193.417 50.8233 194.249 50.1611C195.081 49.4989 196.163 49.0022 197.244 48.6711C198.409 48.34 199.573 48.1745 200.738 48.1745C202.152 48.1745 203.483 48.34 204.814 48.7539C206.145 49.1678 207.31 49.83 208.308 50.7405L204.731 54.8792Z" fill="white"/>
<path d="M234.18 63.9016C234.18 65.3915 233.931 66.7159 233.515 67.9575C233.099 69.1991 232.433 70.2752 231.518 71.1029C230.686 72.0134 229.522 72.6756 228.274 73.2551C226.943 73.7517 225.445 74 223.782 74C222.035 74 220.537 73.7517 219.289 73.2551C217.958 72.7584 216.877 72.0134 216.045 71.1029C215.213 70.1924 214.547 69.1164 214.048 67.9575C213.632 66.7159 213.383 65.3915 213.383 63.9016V48.8367H218.79V63.736C218.79 64.481 218.873 65.226 219.123 65.8882C219.373 66.5504 219.705 67.1298 220.121 67.5436C220.537 68.0403 221.12 68.3714 221.702 68.6197C222.284 68.868 222.95 69.0336 223.698 69.0336C224.447 69.0336 225.113 68.868 225.695 68.6197C226.277 68.3714 226.86 67.9575 227.276 67.5436C227.692 67.047 228.024 66.5504 228.274 65.8882C228.523 65.226 228.607 64.5638 228.607 63.736V48.8367H234.014V63.9016H234.18Z" fill="white"/>
<path d="M240.254 48.8367H245.661V68.3714H255.727V73.3378H240.254V48.8367Z" fill="white"/>
<path d="M261.218 53.6376H254.146V48.8367H273.613V53.6376H266.542V73.4206H261.218V53.6376Z" fill="white"/>
<path d="M277.189 48.8367H282.597V73.3378H277.189V48.8367Z" fill="white"/>
<path d="M288.42 48.8367H295.824L306.306 65.8882H306.389V48.8367H311.796V73.3378H304.725L293.994 55.8725H293.91V73.3378H288.503V48.8367H288.42Z" fill="white"/>
<path d="M339.998 71.6823C338.418 72.5101 336.754 73.0895 335.007 73.5034C333.26 73.8345 331.513 74.0828 329.683 74.0828C327.769 74.0828 325.939 73.7517 324.358 73.1723C322.695 72.5928 321.364 71.6823 320.116 70.6063C318.868 69.5302 318.036 68.123 317.37 66.5503C316.705 64.9776 316.372 63.1566 316.372 61.2528C316.372 59.2662 316.705 57.528 317.37 55.9553C318.036 54.3826 318.951 52.9754 320.116 51.8993C321.28 50.7405 322.695 49.9128 324.358 49.3333C326.022 48.7539 327.769 48.4228 329.683 48.4228C331.679 48.4228 333.509 48.6711 335.173 49.1678C336.837 49.6644 338.251 50.4922 339.582 51.651L335.756 55.7897C335.007 55.0447 334.175 54.4653 333.26 54.0515C332.345 53.6376 331.18 53.472 329.766 53.472C328.601 53.472 327.52 53.6376 326.605 54.0515C325.689 54.4653 324.858 54.962 324.192 55.7069C323.526 56.4519 323.027 57.2796 322.611 58.1902C322.279 59.1834 322.112 60.1767 322.112 61.3356C322.112 62.4944 322.279 63.5705 322.611 64.481C322.944 65.4743 323.526 66.302 324.192 66.9642C324.858 67.7092 325.689 68.2058 326.605 68.6197C327.52 69.0336 328.601 69.1991 329.766 69.1991C330.93 69.1991 332.012 69.0336 332.844 68.7852C333.676 68.5369 334.424 68.2886 334.924 67.9575V63.9843H330.514V59.0179H340.165V71.6823H339.998Z" fill="white"/>
<path d="M97.2536 46.6053C94.2587 46.6053 91.8462 46.6053 89.4336 46.6053C72.13 46.6053 54.9095 46.6053 37.6059 46.6053C33.4464 46.6053 30.2851 44.9498 28.3717 41.3905C26.6247 38.0796 26.8743 34.6858 29.0373 31.5404C31.117 28.5606 34.0287 27.4017 37.6891 27.4017C48.2543 27.4845 58.8195 27.4017 69.3847 27.4017C70.4662 27.4017 71.714 27.7328 72.546 27.3189C72.7123 27.2362 72.8787 27.1534 73.0451 27.0706C74.7089 25.9946 74.8753 23.6769 73.4611 22.3525C73.2115 22.1042 72.8787 21.9386 72.6291 21.9386C60.4001 21.7731 48.0047 21.5248 35.7757 22.0214C27.7062 22.3525 21.5501 29.7194 21.7997 37.3346C22.1324 45.5292 28.5381 51.9028 37.1899 52.1512C47.0064 52.3995 56.9061 52.1512 66.7226 52.2339C75.7904 52.3167 84.9414 52.0684 94.0091 52.1512C96.4217 52.1512 97.4199 52.9789 97.2536 55.5449C97.0872 58.8559 97.3368 62.1668 97.1704 65.5606C96.9208 70.1959 93.6764 73.7552 89.0177 73.7552C70.0502 73.838 50.9996 74.3346 32.0321 73.4241C15.8931 72.7619 1.33479 57.0348 0.086929 40.9767C-1.24412 22.187 9.90342 5.71492 27.3735 1.41067C31.2002 0.417382 35.2766 0.16906 39.2697 0.0862862C54.8264 -0.0792619 70.2998 0.00351212 85.8564 0.00351212C94.3419 0.00351212 97.1704 2.9006 97.2536 11.2608C97.2536 22.8491 97.2536 34.4375 97.2536 46.6053Z" fill="#96CB3B"/>
</g>
<defs>
<clipPath id="clip0_162:3">
<rect width="340" height="74" fill="white"/>
</clipPath>
</defs>
</svg>
